<svg preserveAspectRatio="none" width="100%" height="100%" overflow="visible" style="display: block;" viewBox="0 0 7 9" fill="none" xmlns="http://www.w3.org/2000/svg">
<g id="Group">
<path id="Vector" d="M4.69891 1.36013C4.9918 0.994022 5.19039 0.50233 5.13803 -3.61271e-07C4.70955 0.0212778 4.18678 0.282665 3.88388 0.649191C3.61206 0.962939 3.37153 1.47507 3.43411 1.95634C3.91517 1.99806 4.3958 1.71602 4.69891 1.36013Z" fill="var(--fill-0, black)"/>
<path id="Vector_2" d="M5.13261 2.05042C4.43377 2.0087 3.84007 2.44678 3.5065 2.44678C3.17273 2.44678 2.66184 2.07128 2.10924 2.0815C1.39016 2.09193 0.723032 2.49872 0.357966 3.14541C-0.392609 4.43878 0.159788 6.35799 0.88992 7.41146C1.24435 7.93299 1.67158 8.50666 2.23441 8.48601C2.76636 8.46515 2.97476 8.1418 3.62103 8.1418C4.26709 8.1418 4.45484 8.48601 5.01788 8.47558C5.60156 8.46515 5.96663 7.95405 6.32106 7.43253C6.72784 6.838 6.89411 6.26432 6.90454 6.23303C6.89411 6.2226 5.77888 5.79474 5.76845 4.5118C5.75802 3.43746 6.64419 2.92637 6.68591 2.89487C6.18546 2.15472 5.40359 2.07128 5.1324 2.05042" fill="var(--fill-0, black)"/>
</g>
</svg>
