<svg preserveAspectRatio="none" width="100%" height="100%" overflow="visible" style="display: block;" viewBox="0 0 34 21" fill="none" xmlns="http://www.w3.org/2000/svg">
<path id="Vector" d="M30.7002 0L31.049 0.000625832C31.1433 0.00125166 31.2378 0.0022947 31.3327 0.00479801C31.4981 0.00938741 31.6913 0.0183576 31.8715 0.050692C32.028 0.0788542 32.1594 0.121619 32.2854 0.185871C32.5375 0.314073 32.7424 0.519144 32.8703 0.771436C32.9342 0.896602 32.9767 1.02719 33.0049 1.18511C33.037 1.36326 33.046 1.55706 33.0504 1.72332C33.0531 1.81719 33.0543 1.91107 33.0545 2.00703C33.0556 2.12322 33.0556 2.23921 33.0556 2.35561V18.2762C33.0556 18.3926 33.0556 18.5086 33.0547 18.6271C33.0543 18.721 33.0531 18.8149 33.0506 18.9087C33.046 19.0748 33.037 19.2686 33.0045 19.4488C32.9808 19.5922 32.9354 19.7311 32.8699 19.8608C32.7417 20.1132 32.5366 20.3183 32.2841 20.4464C32.159 20.5102 32.028 20.553 31.873 20.581C31.6892 20.6137 31.4877 20.6227 31.336 20.6268C31.2407 20.6289 31.1458 20.6304 31.0483 20.6308C30.9326 20.6316 30.8162 20.6316 30.7002 20.6316H2.35082C2.23608 20.6316 2.12135 20.6316 2.00452 20.6308C1.91064 20.6304 1.81676 20.6292 1.7229 20.6271C1.5677 20.6229 1.36618 20.6137 1.18386 20.5812C1.0397 20.5571 0.90002 20.5114 0.769559 20.4456C0.644418 20.382 0.5302 20.2989 0.431195 20.1994C0.331878 20.1003 0.248932 19.986 0.185453 19.8608C0.119897 19.7304 0.0744624 19.5908 0.050692 19.4467C0.018149 19.2667 0.00897019 19.0738 0.00479801 18.909C0.00244128 18.8147 0.00105048 18.7205 0.000625832 18.6263L0 18.3495V2.2826L0.000417188 2.00619C0.000847873 1.91182 0.00223867 1.81746 0.00458937 1.72311C0.00917877 1.55789 0.018149 1.36493 0.0509006 1.18344C0.0747182 1.03968 0.120153 0.90035 0.185662 0.770185C0.249079 0.645436 0.331689 0.531536 0.431821 0.431612C0.531065 0.332212 0.645404 0.249133 0.770602 0.185453C0.900746 0.120071 1.03999 0.0746416 1.18365 0.050692C1.36409 0.0183576 1.55748 0.00938741 1.72311 0.00479801C1.8174 0.0022947 1.9119 0.00125166 2.00557 0.000625832L2.35541 0H30.7002" fill="var(--fill-0, white)"/>
</svg>
