<svg preserveAspectRatio="none" width="100%" height="100%" overflow="visible" style="display: block;" viewBox="0 0 17 10" fill="none" xmlns="http://www.w3.org/2000/svg">
<g id="Group">
<path id="Vector" d="M2.93346 0C4.45172 0 5.50916 1.04659 5.50916 2.57027C5.50916 4.09938 4.43002 5.15139 2.89549 5.15139H1.21452V7.82493H0V0H2.93346ZM1.21452 4.13192H2.60803C3.66568 4.13192 4.26731 3.56263 4.26731 2.5757C4.26731 1.58898 3.66547 1.0249 2.61345 1.0249H1.21452V4.13192Z" fill="var(--fill-0, black)"/>
<path id="Vector_2" d="M5.81039 6.20341C5.81039 5.20021 6.57494 4.62549 7.98472 4.53871L9.49755 4.4465V4.0126C9.49755 3.37842 9.08013 3.0313 8.33727 3.0313C7.72438 3.0313 7.27962 3.34567 7.18783 3.82818H6.09222C6.12497 2.81434 7.07915 2.07691 8.36981 2.07691C9.7579 2.07691 10.6635 2.8035 10.6635 3.93145V7.82472H9.54115V6.8866H9.51403C9.19403 7.49929 8.48893 7.88417 7.72438 7.88417C6.59664 7.88417 5.81039 7.21203 5.81039 6.20341V6.20341ZM9.49755 5.6992V5.25987L8.14744 5.34665C7.3881 5.39546 6.99258 5.6773 6.99258 6.17066C6.99258 6.64795 7.40458 6.95711 8.04981 6.95711C8.87381 6.95711 9.49755 6.431 9.49755 5.6992V5.6992Z" fill="var(--fill-0, black)"/>
<path id="Vector_3" d="M11.6955 9.91769V8.97979C11.7714 8.99043 11.9556 9.00127 12.0532 9.00127C12.59 9.00127 12.8937 8.77389 13.0781 8.18791L13.1866 7.84099L11.1314 2.14742H12.4001L13.8318 6.76728H13.8589L15.2904 2.14742H16.5268L14.3957 8.12824C13.9075 9.50027 13.3491 9.95044 12.1671 9.95044C12.0749 9.95044 11.7766 9.9396 11.6955 9.91769V9.91769Z" fill="var(--fill-0, black)"/>
</g>
</svg>
