<svg preserveAspectRatio="none" width="100%" height="100%" overflow="visible" style="display: block;" viewBox="0 0 15 16" fill="none" xmlns="http://www.w3.org/2000/svg">
<g id="Group">
<path id="Vector" d="M14.028 4C13.1149 4 12.2724 3.6975 11.5959 3.18719C10.8199 2.60219 10.2624 1.74406 10.0655 0.755C10.0168 0.510625 9.99054 0.258438 9.98804 0H7.3796V7.1275L7.37648 11.0316C7.37648 12.0753 6.69679 12.9603 5.7546 13.2716C5.48117 13.3619 5.18585 13.4047 4.87835 13.3878C4.48585 13.3663 4.11804 13.2478 3.79835 13.0566C3.11804 12.6497 2.65679 11.9116 2.64429 11.0672C2.6246 9.7475 3.69148 8.67156 5.01023 8.67156C5.27054 8.67156 5.52054 8.71406 5.7546 8.79125V6.84313V6.14281C5.50773 6.10625 5.25648 6.08719 5.00242 6.08719C3.55898 6.08719 2.20898 6.68719 1.24398 7.76813C0.514603 8.585 0.0771029 9.62719 0.00960294 10.72C-0.0788346 12.1556 0.446478 13.5203 1.46523 14.5272C1.61492 14.675 1.7721 14.8122 1.93648 14.9388C2.80992 15.6109 3.87773 15.9753 5.00242 15.9753C5.25648 15.9753 5.50773 15.9566 5.7546 15.92C6.80523 15.7644 7.7746 15.2834 8.5396 14.5272C9.4796 13.5981 9.99898 12.3647 10.0046 11.0519L9.99117 5.22188C10.4396 5.56781 10.9299 5.85406 11.4562 6.07625C12.2746 6.42156 13.1424 6.59656 14.0355 6.59625V4.70219V3.99938C14.0362 4 14.0287 4 14.028 4Z" fill="var(--fill-0, #040C13)"/>
</g>
</svg>
