<svg width="1920" height="201" viewBox="0 0 1920 201" fill="none" xmlns="http://www.w3.org/2000/svg">
<path d="M297.25 232.422C304.417 230.255 311.167 228.755 317.5 227.922V68.1719C310.5 67.1719 303.75 65.5885 297.25 63.4219V60.4219H361V63.6719C355.333 65.5052 348.5 67.0052 340.5 68.1719V227.922C347.333 228.922 354.167 230.505 361 232.672V235.422H297.25V232.422ZM381.705 232.672C387.872 230.839 394.538 229.339 401.705 228.172V68.1719C393.705 67.0052 387.038 65.4219 381.705 63.4219V60.4219H427.205L524.705 206.172V67.9219C517.872 66.9219 511.205 65.4219 504.705 63.4219V60.4219H556.205V63.4219C550.372 65.2552 543.622 66.8385 535.955 68.1719V235.422H522.705L413.205 73.1719V227.922C420.872 229.255 427.538 230.839 433.205 232.672V235.422H381.705V232.672ZM613.285 232.422C618.952 230.922 626.035 229.422 634.535 227.922V69.6719H588.285C587.952 73.5052 587.035 78.9219 585.535 85.9219C584.202 92.7552 582.868 97.3385 581.535 99.6719H576.285V60.4219H715.785V99.6719H710.535C709.202 97.3385 707.785 92.7552 706.285 85.9219C704.952 78.9219 704.118 73.5052 703.785 69.6719H657.535V227.922C665.702 229.255 672.785 230.839 678.785 232.672V235.422H613.285V232.422ZM736.703 232.422C743.87 230.255 750.62 228.755 756.953 227.922V68.1719C749.953 67.1719 743.203 65.5885 736.703 63.4219V60.4219H800.453V63.6719C794.786 65.5052 787.953 67.0052 779.953 68.1719V227.922C786.786 228.922 793.62 230.505 800.453 232.672V235.422H736.703V232.422ZM1035.84 227.672C1043.18 228.839 1049.68 230.422 1055.34 232.422V235.422H992.844V232.422C998.677 230.255 1005.43 228.755 1013.09 227.922L999.594 189.922H924.594L910.844 227.922C918.177 228.755 925.094 230.339 931.594 232.672V235.422H878.094V232.172C880.927 231.172 884.26 230.255 888.094 229.422C891.927 228.422 895.094 227.755 897.594 227.422L958.844 59.4219H974.594L1035.84 227.672ZM996.594 181.172L962.344 84.4219L927.594 181.172H996.594ZM1067.01 232.672C1073.17 230.839 1079.84 229.339 1087.01 228.172V68.1719C1079.01 67.0052 1072.34 65.4219 1067.01 63.4219V60.4219H1113.76L1169.76 196.422L1229.01 60.4219H1275.26V63.4219C1269.09 65.4219 1262.42 67.0885 1255.26 68.4219V228.172C1262.42 229.339 1269.09 230.839 1275.26 232.672V235.422H1212.01V232.672C1217.67 230.839 1224.34 229.255 1232.01 227.922V77.9219L1171.51 216.172H1158.01L1098.51 76.4219V227.922C1106.17 229.255 1112.84 230.839 1118.51 232.672V235.422H1067.01V232.672ZM1444.78 227.672C1452.11 228.839 1458.61 230.422 1464.28 232.422V235.422H1401.78V232.422C1407.61 230.255 1414.36 228.755 1422.03 227.922L1408.53 189.922H1333.53L1319.78 227.922C1327.11 228.755 1334.03 230.339 1340.53 232.672V235.422H1287.03V232.172C1289.86 231.172 1293.2 230.255 1297.03 229.422C1300.86 228.422 1304.03 227.755 1306.53 227.422L1367.78 59.4219H1383.53L1444.78 227.672ZM1405.53 181.172L1371.28 84.4219L1336.53 181.172H1405.53ZM1608.44 227.922C1616.94 229.422 1623.03 230.922 1626.69 232.422V235.422H1590.19L1549.19 160.422H1519.44V227.922C1525.94 228.922 1532.69 230.505 1539.69 232.672V235.422H1475.94V232.422C1478.94 231.422 1482.36 230.505 1486.19 229.672C1490.03 228.839 1493.36 228.255 1496.19 227.922V68.1719C1489.19 67.1719 1482.61 65.5885 1476.44 63.4219V60.4219H1558.69C1577.69 60.4219 1591.36 64.7552 1599.69 73.4219C1608.19 82.0885 1612.44 94.2552 1612.44 109.922C1612.44 123.922 1608.78 135.255 1601.44 143.922C1594.28 152.589 1583.69 157.839 1569.69 159.672L1608.44 227.922ZM1519.44 151.422H1552.19C1565.03 151.422 1574.44 147.755 1580.44 140.422C1586.44 133.089 1589.44 122.839 1589.44 109.672C1589.44 96.5052 1586.44 86.5885 1580.44 79.9219C1574.44 73.0885 1565.03 69.6719 1552.19 69.6719H1519.44V151.422Z" fill="black"/>
</svg>
