<svg width="14" height="14" viewBox="0 0 14 14" fill="none" xmlns="http://www.w3.org/2000/svg">
<path d="M11.6725 1.69141H3.57657C3.46054 1.69141 3.34926 1.7375 3.26721 1.81955C3.18516 1.90159 3.13907 2.01287 3.13907 2.12891C3.13907 2.24494 3.18516 2.35622 3.26721 2.43827C3.34926 2.52031 3.46054 2.56641 3.57657 2.56641H10.8146L1.83751 11.5439C1.79411 11.5838 1.75924 11.6322 1.73499 11.6859C1.71074 11.7397 1.6976 11.7978 1.69638 11.8568C1.69516 11.9157 1.70587 11.9743 1.72788 12.029C1.74988 12.0838 1.78273 12.1335 1.82443 12.1752C1.86613 12.2169 1.91584 12.2497 1.97056 12.2717C2.02528 12.2937 2.08389 12.3044 2.14285 12.3032C2.20182 12.302 2.25993 12.2889 2.31369 12.2646C2.36745 12.2404 2.41575 12.2055 2.4557 12.1621L11.4332 3.18459V10.423C11.4332 10.5391 11.4793 10.6503 11.5613 10.7324C11.6434 10.8144 11.7547 10.8605 11.8707 10.8605C11.9867 10.8605 12.098 10.8144 12.1801 10.7324C12.2621 10.6503 12.3082 10.5391 12.3082 10.423V2.32753C12.308 2.15897 12.2409 1.99737 12.1218 1.87813C12.0026 1.7589 11.8411 1.69175 11.6725 1.69141Z" fill="#1D1D1D"/>
</svg>