<svg width="16" height="16" viewBox="0 0 16 16" fill="none" xmlns="http://www.w3.org/2000/svg">
<g clip-path="url(#clip0_42_8735)">
<path d="M12 0H4.00015C1.8004 0 0.000244141 1.80015 0.000244141 3.9999V12.0001C0.000244141 14.1993 1.8004 16 4.00015 16H12C14.1997 16 15.9999 14.1993 15.9999 12.0001V3.9999C15.9999 1.80015 14.1997 0 12 0ZM14.6665 12.0001C14.6665 13.4701 13.4707 14.6666 12 14.6666H4.00015C2.52999 14.6666 1.33361 13.4701 1.33361 12.0001V3.9999C1.33361 2.52955 2.52999 1.33337 4.00015 1.33337H12C13.4707 1.33337 14.6665 2.52955 14.6665 3.9999V12.0001Z" fill="#040C13"/>
<path d="M12.3338 4.66597C12.8861 4.66597 13.3338 4.21826 13.3338 3.66599C13.3338 3.11372 12.8861 2.66602 12.3338 2.66602C11.7816 2.66602 11.3339 3.11372 11.3339 3.66599C11.3339 4.21826 11.7816 4.66597 12.3338 4.66597Z" fill="#040C13"/>
<path d="M8.00002 4C5.79047 4 4.00012 5.79054 4.00012 7.9999C4.00012 10.2084 5.79047 12.0002 8.00002 12.0002C10.209 12.0002 11.9999 10.2084 11.9999 7.9999C11.9999 5.79054 10.209 4 8.00002 4ZM8.00002 10.6668C6.52744 10.6668 5.33349 9.47287 5.33349 7.9999C5.33349 6.52693 6.52744 5.33337 8.00002 5.33337C9.47261 5.33337 10.6666 6.52693 10.6666 7.9999C10.6666 9.47287 9.47261 10.6668 8.00002 10.6668Z" fill="#040C13"/>
</g>
<defs>
<clipPath id="clip0_42_8735">
<rect width="16" height="16" fill="white"/>
</clipPath>
</defs>
</svg>