<svg width="16" height="16" viewBox="0 0 16 16" fill="none" xmlns="http://www.w3.org/2000/svg">
<g clip-path="url(#clip0_42_8749)">
<path d="M15.1195 0.880269C14.533 0.293581 13.8263 0.000182416 13 0.000182416V0H3.00053C2.17426 0 1.46762 0.293472 0.880819 0.880159C0.294131 1.46696 0.000732422 2.1736 0.000732422 2.99987V12.9995C0.000732422 13.8258 0.294131 14.5325 0.880819 15.119C1.46762 15.7058 2.1743 15.9992 3.00057 15.9992H4.90682C4.78865 14.9301 4.81295 14.0481 4.97968 13.3538L6.00041 9.04151C5.83375 8.70115 5.75035 8.28116 5.75035 7.78126C5.75035 7.20497 5.89793 6.72051 6.19315 6.32824C6.48815 5.93579 6.84755 5.73962 7.27112 5.73962C7.61136 5.73962 7.87353 5.85243 8.05748 6.07804C8.24139 6.30384 8.33351 6.5868 8.33351 6.92708C8.33351 7.14226 8.29532 7.401 8.21903 7.70297C8.14249 8.00523 8.04026 8.35931 7.91177 8.76558C7.78331 9.17182 7.69134 9.49284 7.63574 9.72889C7.53858 10.1457 7.61837 10.5049 7.87532 10.8072C8.13224 11.109 8.46898 11.2603 8.88576 11.2603C9.62189 11.2603 10.2242 10.8506 10.6931 10.0311C11.1618 9.21181 11.396 8.21874 11.396 7.05226C11.396 6.15655 11.1061 5.42729 10.526 4.8649C9.94648 4.3024 9.13921 4.02111 8.10444 4.02111C6.945 4.02111 6.0057 4.39098 5.28691 5.13046C4.56815 5.87001 4.20875 6.76068 4.20875 7.80224C4.20875 8.41326 4.38245 8.93414 4.72962 9.36475C4.84761 9.4966 4.88588 9.64257 4.84418 9.80237C4.80941 9.92046 4.75735 10.1322 4.68792 10.4376C4.66009 10.535 4.60981 10.6008 4.53685 10.6356C4.46381 10.6703 4.38227 10.6703 4.29201 10.6356C3.75734 10.4135 3.35267 10.0314 3.07846 9.48974C2.80422 8.94826 2.66708 8.32311 2.66708 7.61497C2.66708 7.1566 2.74176 6.69636 2.89108 6.23477C3.04041 5.7729 3.27131 5.32849 3.58376 4.90149C3.8962 4.47431 4.26935 4.09415 4.70343 3.76077C5.13736 3.4276 5.6687 3.16197 6.29709 2.96405C6.92541 2.76616 7.60086 2.66718 8.32279 2.66718C9.05906 2.66718 9.74297 2.79415 10.375 3.04756C11.0068 3.30093 11.5363 3.63768 11.9636 4.05778C12.3906 4.47792 12.7257 4.96052 12.9685 5.50569C13.2117 6.05068 13.3332 6.615 13.3332 7.19822C13.3332 8.7677 12.9357 10.0645 12.1407 11.0887C11.3456 12.113 10.3196 12.6252 9.06282 12.6252C8.64581 12.6252 8.25551 12.528 7.89083 12.3336C7.52632 12.1392 7.27112 11.9066 7.12526 11.6357C6.81975 12.851 6.63576 13.5765 6.57323 13.8126C6.41355 14.4237 6.03857 15.1527 5.44834 16H12.9999C13.8261 16 14.5328 15.7066 15.1194 15.1198C15.7062 14.533 15.9996 13.8263 15.9996 13V2.99995C15.9996 2.17375 15.7062 1.46707 15.1195 0.880269Z" fill="#040C13"/>
</g>
<defs>
<clipPath id="clip0_42_8749">
<rect width="16" height="16" fill="white"/>
</clipPath>
</defs>
</svg>