<svg preserveAspectRatio="none" width="100%" height="100%" overflow="visible" style="display: block;" viewBox="0 0 104 124" fill="none" xmlns="http://www.w3.org/2000/svg">
<path id="Vector" d="M73.7699 2.04444C81.2668 2.04444 86.5471 1.53333 89.6148 0L98.8137 36.4593L98.1329 36.6295C86.0365 8.00738 77.178 2.72593 63.8881 2.72593H28.7923V52.9852H56.7336C67.6366 52.9852 76.6674 48.7259 77.6886 29.9851H78.3694V77.5184H77.6886C76.6674 58.7777 67.6366 53.6666 56.7336 53.6666H28.7923V113.977C28.7923 119.259 32.2004 120.963 39.1847 120.963H67.4664C80.7563 120.963 89.9552 111.763 102.732 79.222L103.415 79.3924L92.8527 123.348C87.9108 121.985 82.288 121.644 71.2149 121.644H0V120.963C12.2666 120.792 14.4812 118.407 14.4812 109.378V14.3111C14.4812 5.28148 12.2666 2.89629 0 2.72593V2.04444H73.7699Z" fill="var(--fill-0, white)"/>
</svg>
