<svg preserveAspectRatio="none" width="100%" height="100%" overflow="visible" style="display: block;" viewBox="0 0 16 16" fill="none" xmlns="http://www.w3.org/2000/svg">
<g id="Group">
<path id="Vector" d="M11.9997 0H3.9999C1.80015 0 0 1.80015 0 3.9999V12.0001C0 14.1993 1.80015 16 3.9999 16H11.9997C14.1995 16 15.9996 14.1993 15.9996 12.0001V3.9999C15.9996 1.80015 14.1995 0 11.9997 0ZM14.6662 12.0001C14.6662 13.4701 13.4705 14.6666 11.9997 14.6666H3.9999C2.52974 14.6666 1.33337 13.4701 1.33337 12.0001V3.9999C1.33337 2.52955 2.52974 1.33337 3.9999 1.33337H11.9997C13.4705 1.33337 14.6662 2.52955 14.6662 3.9999V12.0001Z" fill="var(--fill-0, #040C13)"/>
</g>
</svg>
