<svg preserveAspectRatio="none" width="100%" height="100%" overflow="visible" style="display: block;" viewBox="0 0 16 16" fill="none" xmlns="http://www.w3.org/2000/svg">
<g id="fi_1384021" clip-path="url(#clip0_44_8913)">
<path id="Vector" d="M14.6642 0.492187H1.31946C0.862518 0.492462 0.492096 0.863067 0.492187 1.32019V14.6649C0.492462 15.1219 0.863067 15.4923 1.32019 15.4922H8.50488V9.69141H6.55664V7.4209H8.50488V5.74997C8.50488 3.81226 9.68784 2.75757 11.4164 2.75757C12.2443 2.75757 12.9557 2.81927 13.1631 2.84683V4.87207H11.9712C11.0307 4.87207 10.8486 5.31894 10.8486 5.97482V7.4209H13.0972L12.8042 9.69141H10.8486V15.4922H14.6642C15.1214 15.4923 15.4921 15.1218 15.4922 14.6646C15.4922 14.6645 15.4922 14.6644 15.4922 14.6642V1.31946C15.492 0.862518 15.1213 0.492096 14.6642 0.492187Z" fill="var(--fill-0, #040C13)"/>
</g>
<defs>
<clipPath id="clip0_44_8913">
<rect width="16" height="16" fill="white"/>
</clipPath>
</defs>
</svg>
