<svg preserveAspectRatio="none" width="100%" height="100%" overflow="visible" style="display: block;" viewBox="0 0 18 17" fill="none" xmlns="http://www.w3.org/2000/svg">
<path id="Vector" d="M8.70833 16.5251L8.34167 16.1584C7.60833 15.4251 6.96667 14.7834 6.23333 14.1417C2.84167 10.9334 0 8.1834 0 4.8834C0 2.31674 1.74167 0.208403 3.94167 0.0250693C5.775 -0.158264 7.33333 0.666736 8.70833 2.4084C10.0833 0.666736 11.6417 -0.158264 13.475 0.0250693C15.7667 0.208403 17.4167 2.31674 17.4167 4.8834C17.4167 8.1834 14.4833 10.9334 11.1833 14.1417C10.45 14.7834 9.80833 15.5167 9.075 16.1584L8.70833 16.5251ZM4.4 0.941736H4.03333C2.29167 1.12507 0.916667 2.77507 0.916667 4.8834C0.916667 7.81674 3.66667 10.4751 6.875 13.5001C7.51667 14.0501 8.06667 14.6917 8.70833 15.2417C9.35 14.6001 9.9 14.0501 10.5417 13.5001C13.75 10.4751 16.5 7.81674 16.5 4.8834C16.5 2.77507 15.125 1.12507 13.3833 0.941736C11.825 0.758403 10.3583 1.5834 9.075 3.41674L8.70833 3.96674L8.34167 3.41674C7.15 1.76674 5.86667 0.941736 4.4 0.941736Z" fill="var(--fill-0, #121212)"/>
</svg>
