<svg preserveAspectRatio="none" width="100%" height="100%" overflow="visible" style="display: block;" viewBox="0 0 84 122" fill="none" xmlns="http://www.w3.org/2000/svg">
<path id="Vector" d="M0.68148 78.3702C14.6518 109.548 25.3851 120.963 46.3406 120.963C63.5479 120.963 73.5997 109.207 73.5997 95.2369C73.5997 54.1776 8.68888 68.148 8.68888 28.2815C8.68888 10.2222 23.8518 0 40.5481 0C53.1554 0 59.6295 2.89628 65.0814 2.89628C67.2962 2.89628 70.0221 2.38517 71.3851 0L76.3258 34.4148L75.6444 34.585C67.2962 11.0741 57.7554 0.681472 40.2073 0.681472C26.9185 0.681472 16.8666 8.17776 16.8666 20.9556C16.8666 54.6888 83.1405 40.7183 83.1405 88.2516C83.1405 106.822 67.2962 121.644 45.8294 121.644C31.0074 121.644 24.0222 118.237 17.3777 118.237C13.4592 118.237 11.2444 119.77 9.88146 121.644L0 78.5406L0.68148 78.3702Z" fill="var(--fill-0, white)"/>
</svg>
