<svg preserveAspectRatio="none" width="100%" height="100%" overflow="visible" style="display: block;" viewBox="0 0 14 16" fill="none" xmlns="http://www.w3.org/2000/svg">
<path id="Fill-7" d="M0 4.88711C0 5.4749 0 6.42065 0 7.00821C0.318694 7.00821 0.64421 7.00821 0.64421 7.00821C1.09057 7.00821 1.50281 6.87783 1.50281 5.93102C1.50281 5.00572 1.04406 4.88711 0.64421 4.88711C0.64421 4.88711 0.318694 4.88711 0 4.88711ZM10.7464 3.83211H11.7885C11.7885 3.83211 11.7885 6.23324 11.7885 7.00821C12.0196 7.00821 12.6542 7.00821 13.3327 7.00821C12.9092 1.24514 8.42317 0 4.34693 0H0.000891509V3.83429H0.64421C1.81705 3.83429 2.54576 4.63806 2.54576 5.93102C2.54576 7.265 1.83456 8.06127 0.64421 8.06127H0.000891509V15.7334H4.34693C10.9745 15.7334 13.2809 12.623 13.3623 8.06127H10.7464V3.83211ZM7.84298 6.19193H8.59691L8.25218 4.99635H8.18957L7.84298 6.19193ZM6.2168 8.06254L7.47874 3.83196H8.9613L10.2229 8.06254H9.13808L8.90158 7.24415H7.53846L7.30129 8.06254H6.2168ZM5.71636 7.00821V8.06127H3.13833V3.83369H5.63313V4.88636C5.63313 4.88636 4.7453 4.88636 4.18054 4.88636C4.18054 5.03152 4.18054 5.19795 4.18054 5.37645H5.55434V6.42883H4.18054C4.18054 6.64018 4.18054 6.83945 4.18054 7.00821C4.76162 7.00821 5.71636 7.00821 5.71636 7.00821Z" fill="var(--fill-0, #D50172)"/>
</svg>
