<svg preserveAspectRatio="none" width="100%" height="100%" overflow="visible" style="display: block;" viewBox="0 0 112 122" fill="none" xmlns="http://www.w3.org/2000/svg">
<path id="Vector" d="M0 61.3331C0 24.7036 28.7923 0 61.3331 0C77.5184 0 86.0365 3.9185 91.9996 3.9185C95.4077 3.9185 97.9627 2.38517 99.3264 0.170369L107.674 37.9925L106.991 38.1629C96.0885 11.074 82.8007 0.681472 61.3331 0.681472C32.711 0.681472 15.3343 21.126 15.3343 59.6295C15.3343 96.9405 33.9044 120.963 60.6523 120.963C86.8896 120.963 98.6435 103.074 111.08 78.3702L111.763 78.5406L98.984 120.452C96.9395 118.918 94.5547 118.237 91.8294 118.237C84.3325 118.237 75.8144 121.644 60.4821 121.644C29.8156 121.644 0 100.007 0 61.3331Z" fill="var(--fill-0, white)"/>
</svg>
