<svg preserveAspectRatio="none" width="100%" height="100%" overflow="visible" style="display: block;" viewBox="0 0 104 124" fill="none" xmlns="http://www.w3.org/2000/svg">
<path id="Vector" d="M73.7701 2.04444C81.2664 2.04444 86.5479 1.53333 89.6146 0L98.8146 36.4593L98.1332 36.6295C86.0369 8.00738 77.1776 2.72593 63.8888 2.72593H28.7925V52.9852H56.7332C67.6368 52.9852 76.6666 48.7259 77.6888 29.9851H78.3702V77.5184H77.6888C76.6666 58.7777 67.6368 53.6666 56.7332 53.6666H28.7925V113.977C28.7925 119.259 32.2 120.963 39.1851 120.963H67.4666C80.7554 120.963 89.9554 111.763 102.733 79.222L103.415 79.3924L92.8517 123.348C87.911 121.985 82.2887 121.644 71.2147 121.644H0V120.963C12.2666 120.792 14.4815 118.407 14.4815 109.378V14.3111C14.4815 5.28148 12.2666 2.89629 0 2.72593V2.04444H73.7701Z" fill="var(--fill-0, white)"/>
</svg>
