<svg preserveAspectRatio="none" width="100%" height="100%" overflow="visible" style="display: block;" viewBox="0 0 11 11" fill="none" xmlns="http://www.w3.org/2000/svg">
<g id="Layer 2">
<path id="Vector" d="M9.97622 0H1.88028C1.76425 0 1.65297 0.0460935 1.57092 0.128141C1.48888 0.210188 1.44278 0.321468 1.44278 0.4375C1.44278 0.553532 1.48888 0.664812 1.57092 0.746859C1.65297 0.828906 1.76425 0.875 1.88028 0.875H9.11828L0.141219 9.8525C0.0978235 9.89244 0.0629516 9.94074 0.0386994 9.99451C0.0144472 10.0483 0.00131555 10.1064 9.38735e-05 10.1653C-0.0011278 10.2243 0.00958569 10.2829 0.0315903 10.3376C0.053595 10.3924 0.0864365 10.4421 0.128141 10.4838C0.169845 10.5255 0.219551 10.5583 0.274272 10.5803C0.328992 10.6023 0.387596 10.613 0.446562 10.6118C0.505528 10.6106 0.563639 10.5975 0.617401 10.5732C0.671163 10.549 0.719466 10.5141 0.759407 10.4707L9.73691 1.49319V8.73163C9.73691 8.84766 9.783 8.95894 9.86505 9.04098C9.9471 9.12303 10.0584 9.16913 10.1744 9.16913C10.2904 9.16913 10.4017 9.12303 10.4838 9.04098C10.5658 8.95894 10.6119 8.84766 10.6119 8.73163V0.636125C10.6117 0.467561 10.5446 0.305961 10.4255 0.186727C10.3063 0.0674926 10.1448 0.000347158 9.97622 0Z" fill="var(--fill-0, #1D1D1D)"/>
</g>
</svg>
