<svg preserveAspectRatio="none" width="100%" height="100%" overflow="visible" style="display: block;" viewBox="0 0 90 15" fill="none" xmlns="http://www.w3.org/2000/svg">
<path id="Vector" d="M9.024 6.83886L10.3863 8.95086L13.1337 4.68571V14.1303H15.4971V0.393143H13.0834L9.024 6.83886ZM2.39086 0.393143H0V14.1303H2.37257V4.68571L7.75314 13.0697L9.12457 10.9303L2.39086 0.393143ZM29.7097 9.86971L31.8994 14.1303H34.7474L27.5977 0.393143H25.0286L25.024 0.397714L28.608 7.68H23.8491L25.088 5.30743L23.7943 2.72457L17.7691 14.1303H20.4343L22.688 9.87429L29.7097 9.86971ZM50.5326 0.393143H48.16V7.06286L50.5326 9.38514V0.393143ZM39.0903 0.393143H36.6811V14.1303H39.0537V3.86286L48.768 14.1303H50.5326V12.4617L39.0903 0.393143ZM67.0949 4.20571C65.9657 3.06286 64.224 2.33143 62.272 2.33143C59.1543 2.33143 56.5806 4.19657 56.1691 6.61486H53.5589C53.9017 2.85714 57.8423 0.0914286 62.304 0.0914286C64.9554 0.0914286 67.3417 1.056 68.9463 2.60571L67.0949 4.20571ZM62.0526 12.2103C59.4514 12.2103 57.2343 10.8343 56.4114 8.91429H53.7509C54.6331 12.2286 58.0937 14.4366 62.2034 14.4366C63.1589 14.4366 64.256 14.3451 65.1657 14.1257C67.2229 13.6274 69.472 12.3246 69.472 10.2674V6.61486H62.0297L62.0251 8.91429H67.0949V9.95657C67.0949 11.1086 65.3257 11.776 64.2469 12.0091C63.6663 12.1371 62.9166 12.2103 62.3177 12.2103H62.0526ZM89.0697 7.27314C89.0697 3.17714 85.2526 0 80.5669 0C76.0274 0 72.0411 3.03086 72.0411 7.05371C72.0411 10.848 75.1726 13.888 79.3874 14.368V12.0731C76.6263 11.6297 74.5417 9.62286 74.5417 7.20457C74.5417 4.46171 77.2251 2.24 80.5303 2.24C83.84 2.24 86.5189 4.46629 86.5189 7.20457C86.5189 9.60457 84.4663 11.5977 81.7371 12.064V14.3634C85.792 13.8834 89.0697 10.9577 89.0697 7.27314Z" fill="var(--fill-0, #121212)"/>
</svg>
