<svg preserveAspectRatio="none" width="100%" height="100%" overflow="visible" style="display: block;" viewBox="0 0 15 19" fill="none" xmlns="http://www.w3.org/2000/svg">
<path id="Vector" d="M7.33333 9.16667C9.86058 9.16667 11.9167 7.11058 11.9167 4.58333C11.9167 2.05608 9.86058 0 7.33333 0C4.80608 0 2.75 2.05608 2.75 4.58333C2.75 7.11058 4.80608 9.16667 7.33333 9.16667ZM7.33333 0.916667C9.3555 0.916667 11 2.56117 11 4.58333C11 6.6055 9.3555 8.25 7.33333 8.25C5.31117 8.25 3.66667 6.6055 3.66667 4.58333C3.66667 2.56117 5.31117 0.916667 7.33333 0.916667ZM7.33333 11C3.15333 11 0 13.9553 0 17.875V18.3333H14.6667V17.875C14.6667 13.9553 11.5133 11 7.33333 11ZM0.934083 17.4167C1.16967 14.2505 3.84175 11.9167 7.33333 11.9167C10.8249 11.9167 13.497 14.2505 13.7326 17.4167H0.934083Z" fill="var(--fill-0, #121212)"/>
</svg>
