<svg preserveAspectRatio="none" width="100%" height="100%" overflow="visible" style="display: block;" viewBox="0 0 101 17" fill="none" xmlns="http://www.w3.org/2000/svg">
<path id="Vector" d="M10.152 7.69371L11.6846 10.0697L14.7754 5.27143V15.8966H17.4343V0.442286H14.7189L10.152 7.69371ZM2.68971 0.442286H0V15.8966H2.66914V5.27143L8.72229 14.7034L10.2651 12.2966L2.68971 0.442286ZM33.4234 11.1034L35.8869 15.8966H39.0909L31.0474 0.442286H28.1571L28.152 0.447429L32.184 8.64H26.8303L28.224 5.97086L26.7686 3.06514L19.9903 15.8966H22.9886L25.524 11.1086L33.4234 11.1034ZM56.8491 0.442286H54.18V7.94571L56.8491 10.5583V0.442286ZM43.9766 0.442286H41.2663V15.8966H43.9354V4.34571L54.864 15.8966H56.8491V14.0194L43.9766 0.442286ZM75.4817 4.73143C74.2114 3.44571 72.252 2.62286 70.056 2.62286C66.5486 2.62286 63.6531 4.72114 63.1903 7.44171H60.2537C60.6394 3.21429 65.0726 0.102857 70.092 0.102857C73.0749 0.102857 75.7594 1.188 77.5646 2.93143L75.4817 4.73143ZM69.8091 13.7366C66.8829 13.7366 64.3886 12.1886 63.4629 10.0286H60.4697C61.4623 13.7571 65.3554 16.2411 69.9789 16.2411C71.0537 16.2411 72.288 16.1383 73.3114 15.8914C75.6257 15.3309 78.156 13.8651 78.156 11.5509V7.44171H69.7834L69.7783 10.0286H75.4817V11.2011C75.4817 12.4971 73.4914 13.248 72.2777 13.5103C71.6246 13.6543 70.7811 13.7366 70.1074 13.7366H69.8091ZM100.203 8.18229C100.203 3.57429 95.9091 0 90.6377 0C85.5309 0 81.0463 3.40971 81.0463 7.93543C81.0463 12.204 84.5691 15.624 89.3109 16.164V13.5823C86.2046 13.0834 83.8594 10.8257 83.8594 8.10514C83.8594 5.01943 86.8783 2.52 90.5966 2.52C94.32 2.52 97.3337 5.02457 97.3337 8.10514C97.3337 10.8051 95.0246 13.0474 91.9543 13.572V16.1589C96.516 15.6189 100.203 12.3274 100.203 8.18229Z" fill="var(--fill-0, #121212)"/>
</svg>
