<svg preserveAspectRatio="none" width="100%" height="100%" overflow="visible" style="display: block;" viewBox="0 0 17 17" fill="none" xmlns="http://www.w3.org/2000/svg">
<path id="Vector" d="M13.75 6.875C13.75 3.08367 10.6663 0 6.875 0C3.08367 0 0 3.08367 0 6.875C0 10.6663 3.08367 13.75 6.875 13.75C8.53887 13.7498 10.1456 13.143 11.3942 12.0432L15.7172 16.3662L16.3662 15.7172L12.0432 11.3951C13.1432 10.1463 13.75 8.53919 13.75 6.875ZM6.875 12.8333C3.58967 12.8333 0.916667 10.1603 0.916667 6.875C0.916667 3.58967 3.58967 0.916667 6.875 0.916667C10.1603 0.916667 12.8333 3.58967 12.8333 6.875C12.8333 10.1603 10.1603 12.8333 6.875 12.8333Z" fill="var(--fill-0, #121212)"/>
</svg>
