<svg width="16" height="16" viewBox="0 0 16 16" fill="none" xmlns="http://www.w3.org/2000/svg">
<path d="M7.09682 1.63721C7.36557 1.63721 7.63432 1.65596 7.90151 1.69189C7.85932 1.68564 7.8187 1.68096 7.77651 1.67471C8.2937 1.74658 8.79838 1.88408 9.27963 2.08564C9.24213 2.07002 9.20463 2.05439 9.16713 2.03877C9.4687 2.16689 9.75932 2.31846 10.0343 2.49346C10.1546 2.57002 10.2734 2.65127 10.3874 2.73564C10.414 2.75596 10.4421 2.77627 10.4687 2.79658C10.3421 2.70127 10.4421 2.77627 10.4718 2.79971C10.5296 2.84658 10.5874 2.89502 10.6453 2.94346C10.864 3.13252 11.0687 3.33721 11.2562 3.55596C11.2999 3.60752 11.3437 3.65908 11.3859 3.71221C11.3999 3.73096 11.4734 3.82471 11.4187 3.75283C11.3656 3.68408 11.414 3.74658 11.4234 3.75908C11.4374 3.77783 11.4499 3.79502 11.464 3.81377C11.5484 3.92939 11.6296 4.04658 11.7062 4.16689C11.8796 4.44189 12.0312 4.73096 12.1578 5.03096C12.1421 4.99346 12.1265 4.95596 12.1109 4.91846C12.314 5.40439 12.4531 5.91377 12.5234 6.43408C12.5171 6.39189 12.5124 6.35127 12.5062 6.30908C12.5749 6.83096 12.5749 7.36064 12.5062 7.88408C12.5124 7.84189 12.5171 7.80127 12.5234 7.75908C12.4531 8.28096 12.314 8.79033 12.1109 9.27471C12.1265 9.23721 12.1421 9.19971 12.1578 9.16221C12.0437 9.43096 11.9109 9.69033 11.7593 9.94033C11.6843 10.0622 11.6062 10.1825 11.5234 10.2981C11.4843 10.3528 11.4437 10.4075 11.4031 10.4606C11.3671 10.5091 11.4812 10.3622 11.4281 10.4278C11.4187 10.4403 11.4093 10.4513 11.3999 10.4638C11.3749 10.4966 11.3484 10.5278 11.3218 10.5591C11.1374 10.781 10.9359 10.9888 10.7203 11.181C10.6703 11.2263 10.6187 11.27 10.5671 11.3138C10.5406 11.3356 10.5156 11.3575 10.489 11.3778C10.4609 11.4013 10.3359 11.4935 10.4687 11.395C10.3546 11.481 10.239 11.5653 10.1203 11.6435C9.8187 11.8419 9.49995 12.0122 9.16713 12.1544L9.27963 12.1075C8.79838 12.3091 8.2937 12.4481 7.77651 12.5185C7.8187 12.5122 7.85932 12.5075 7.90151 12.5013C7.3687 12.5716 6.82807 12.5731 6.2937 12.5013C6.33588 12.5075 6.37651 12.5122 6.4187 12.5185C5.90307 12.4481 5.39838 12.3106 4.9187 12.1091C4.9562 12.1247 4.9937 12.1403 5.0312 12.156C4.75776 12.0403 4.4937 11.9044 4.24213 11.7497C4.11401 11.6716 3.98745 11.5872 3.86557 11.4997C3.83745 11.4794 3.81088 11.4591 3.78276 11.4388C3.7687 11.4278 3.7437 11.4153 3.73432 11.4013C3.73276 11.3997 3.83432 11.4794 3.7812 11.4372C3.72182 11.3903 3.66401 11.3435 3.6062 11.295C3.38276 11.106 3.17182 10.8997 2.97807 10.6794C2.92807 10.6231 2.87963 10.5653 2.83276 10.5075C2.81088 10.481 2.79057 10.4544 2.7687 10.4278C2.76088 10.4169 2.75151 10.406 2.7437 10.395C2.84526 10.5231 2.77651 10.4372 2.75463 10.4091C2.6687 10.2935 2.58588 10.1763 2.50932 10.0544C2.32651 9.77002 2.17026 9.47158 2.03745 9.16064C2.05307 9.19814 2.0687 9.23564 2.08432 9.27314C1.88276 8.79346 1.74526 8.28877 1.67495 7.77314C1.6812 7.81533 1.68588 7.85596 1.69213 7.89814C1.62026 7.36533 1.62026 6.82471 1.69213 6.29189C1.68588 6.33408 1.6812 6.37471 1.67495 6.41689C1.74526 5.90127 1.88276 5.39658 2.08432 4.91689C2.0687 4.95439 2.05307 4.99189 2.03745 5.02939C2.15307 4.75596 2.28901 4.49189 2.4437 4.24033C2.52182 4.11221 2.6062 3.98564 2.6937 3.86377C2.71401 3.83564 2.73432 3.80908 2.75463 3.78096C2.76557 3.76689 2.77807 3.74189 2.79213 3.73252C2.7937 3.73096 2.71401 3.83252 2.7562 3.77939C2.80307 3.72002 2.84995 3.66221 2.89838 3.60439C3.08745 3.38096 3.2937 3.17002 3.51401 2.97627C3.57026 2.92627 3.62807 2.87783 3.68588 2.83096C3.71245 2.80908 3.73901 2.78877 3.76557 2.76689C3.77651 2.75908 3.78745 2.74971 3.79838 2.74189C3.67026 2.84346 3.7562 2.77471 3.78432 2.75283C3.89995 2.66689 4.01713 2.58408 4.13901 2.50752C4.42338 2.32471 4.72182 2.16846 5.03276 2.03564C4.99526 2.05127 4.95776 2.06689 4.92026 2.08252C5.39995 1.88096 5.90463 1.74346 6.42026 1.67314C6.37807 1.67939 6.33745 1.68408 6.29526 1.69033C6.55932 1.65596 6.82807 1.63721 7.09682 1.63721C7.34213 1.63721 7.57651 1.42158 7.56557 1.16846C7.55463 0.915332 7.35932 0.699707 7.09682 0.699707C5.8687 0.70127 4.63901 1.05752 3.61088 1.73252C2.61557 2.38564 1.79213 3.31221 1.29526 4.39814C1.03901 4.95752 0.854634 5.54189 0.770259 6.15127C0.676509 6.81533 0.681196 7.47002 0.782759 8.13408C0.967134 9.33096 1.52338 10.4591 2.32651 11.3638C3.1187 12.256 4.17338 12.9169 5.3187 13.2481C6.67182 13.6403 8.17651 13.5747 9.4812 13.0372C10.1546 12.7591 10.7671 12.3872 11.3187 11.9091C11.8062 11.4856 12.2281 10.9778 12.5656 10.4278C13.2687 9.27783 13.5968 7.89189 13.4718 6.54814C13.4062 5.84033 13.2312 5.16846 12.9515 4.51689C12.6921 3.91533 12.3296 3.36221 11.8984 2.86846C10.9734 1.81221 9.67651 1.06689 8.29526 0.81377C7.89995 0.741895 7.49838 0.70127 7.09682 0.699707C6.85151 0.699707 6.61713 0.915332 6.62807 1.16846C6.63901 1.42314 6.83432 1.63721 7.09682 1.63721Z" fill="black"/>
<path d="M10.9594 11.6249L12.1594 12.8249L14.0641 14.7296L14.5001 15.1656C14.6735 15.339 14.9922 15.3515 15.1626 15.1656C15.3344 14.9781 15.3485 14.6874 15.1626 14.5031C14.7626 14.1031 14.3626 13.7031 13.9626 13.3031C13.3282 12.6687 12.6922 12.0328 12.0579 11.3984C11.9126 11.2531 11.7672 11.1078 11.6219 10.9624C11.4485 10.789 11.1297 10.7765 10.9594 10.9624C10.7876 11.1484 10.7735 11.439 10.9594 11.6249Z" fill="black"/>
</svg>
