<svg preserveAspectRatio="none" width="100%" height="100%" overflow="visible" style="display: block;" viewBox="0 0 16 16" fill="none" xmlns="http://www.w3.org/2000/svg">
<g id="Group">
<path id="Vector" d="M15.1188 0.880269C14.5322 0.293581 13.8256 0.000182416 12.9993 0.000182416V0H2.9998C2.17353 0 1.46688 0.293472 0.880086 0.880159C0.293399 1.46696 0 2.1736 0 2.99987V12.9995C0 13.8258 0.293399 14.5325 0.880086 15.119C1.46688 15.7058 2.17356 15.9992 2.99984 15.9992H4.90609C4.78792 14.9301 4.81222 14.0481 4.97895 13.3538L5.99968 9.04151C5.83302 8.70115 5.74962 8.28116 5.74962 7.78126C5.74962 7.20497 5.89719 6.72051 6.19242 6.32824C6.48742 5.93579 6.84682 5.73962 7.27039 5.73962C7.61063 5.73962 7.8728 5.85243 8.05675 6.07804C8.24066 6.30384 8.33278 6.5868 8.33278 6.92708C8.33278 7.14226 8.29458 7.401 8.2183 7.70297C8.14176 8.00523 8.03953 8.35931 7.91104 8.76558C7.78258 9.17182 7.6906 9.49284 7.635 9.72889C7.53785 10.1457 7.61764 10.5049 7.87459 10.8072C8.1315 11.109 8.46824 11.2603 8.88503 11.2603C9.62115 11.2603 10.2235 10.8506 10.6924 10.0311C11.1611 9.21181 11.3953 8.21874 11.3953 7.05226C11.3953 6.15655 11.1054 5.42729 10.5253 4.8649C9.94574 4.3024 9.13848 4.02111 8.1037 4.02111C6.94426 4.02111 6.00497 4.39098 5.28617 5.13046C4.56742 5.87001 4.20802 6.76068 4.20802 7.80224C4.20802 8.41326 4.38172 8.93414 4.72889 9.36475C4.84688 9.4966 4.88515 9.64257 4.84345 9.80237C4.80868 9.92046 4.75662 10.1322 4.68719 10.4376C4.65935 10.535 4.60908 10.6008 4.53611 10.6356C4.46307 10.6703 4.38153 10.6703 4.29127 10.6356C3.75661 10.4135 3.35194 10.0314 3.07773 9.48974C2.80349 8.94826 2.66634 8.32311 2.66634 7.61497C2.66634 7.1566 2.74103 6.69636 2.89035 6.23477C3.03968 5.7729 3.27058 5.32849 3.58302 4.90149C3.89547 4.47431 4.26862 4.09415 4.7027 3.76077C5.13663 3.4276 5.66797 3.16197 6.29636 2.96405C6.92467 2.76616 7.60012 2.66718 8.32206 2.66718C9.05833 2.66718 9.74224 2.79415 10.3742 3.04756C11.0061 3.30093 11.5356 3.63768 11.9629 4.05778C12.3898 4.47792 12.725 4.96052 12.9678 5.50569C13.211 6.05068 13.3325 6.615 13.3325 7.19822C13.3325 8.7677 12.935 10.0645 12.1399 11.0887C11.3448 12.113 10.3188 12.6252 9.06208 12.6252C8.64508 12.6252 8.25478 12.528 7.89009 12.3336C7.52559 12.1392 7.27039 11.9066 7.12453 11.6357C6.81902 12.851 6.63503 13.5765 6.5725 13.8126C6.41281 14.4237 6.03784 15.1527 5.44761 16H12.9992C13.8254 16 14.5321 15.7066 15.1187 15.1198C15.7055 14.533 15.9989 13.8263 15.9989 13V2.99995C15.9989 2.17375 15.7055 1.46707 15.1188 0.880269Z" fill="var(--fill-0, #040C13)"/>
</g>
</svg>
