<svg preserveAspectRatio="none" width="100%" height="100%" overflow="visible" style="display: block;" viewBox="0 0 16 16" fill="none" xmlns="http://www.w3.org/2000/svg">
<g id="fi_1384028">
<path id="Vector" d="M15.1831 4.25082C15.0103 3.60822 14.5036 3.10165 13.8611 2.92862C12.6873 2.60745 7.992 2.60745 7.992 2.60745C7.992 2.60745 3.29691 2.60745 2.12311 2.91644C1.49295 3.0893 0.973938 3.60831 0.801087 4.25082C0.492188 5.42453 0.492188 7.85864 0.492188 7.85864C0.492188 7.85864 0.492188 10.305 0.801087 11.4665C0.974121 12.109 1.48059 12.6155 2.1232 12.7886C3.30927 13.1098 7.99219 13.1098 7.99219 13.1098C7.99219 13.1098 12.6873 13.1098 13.8611 12.8008C14.5037 12.6279 15.0103 12.1213 15.1833 11.4788C15.4921 10.305 15.4921 7.871 15.4921 7.871C15.4921 7.871 15.5045 5.42453 15.1831 4.25082ZM6.49713 10.1074V5.60993L10.4015 7.85864L6.49713 10.1074Z" fill="var(--fill-0, #040C13)"/>
</g>
</svg>
