<svg preserveAspectRatio="none" width="100%" height="100%" overflow="visible" style="display: block;" viewBox="0 0 35 23" fill="none" xmlns="http://www.w3.org/2000/svg">
<g id="5" clip-path="url(#clip0_44_8862)">
<path id="Vector" d="M32.2368 0H2.76316C1.19737 0 0 1.19737 0 2.76316V19.3421C0 20.9079 1.28947 22.1053 2.76316 22.1053H32.2368C33.8026 22.1053 35 20.9079 35 19.3421V2.76316C35 1.19737 33.7105 0 32.2368 0Z" fill="var(--fill-0, #F3F5F6)"/>
<path id="Vector_2" d="M32.2368 0.921052C33.25 0.921052 34.0789 1.75 34.0789 2.76316V19.3421C34.0789 20.3553 33.25 21.1842 32.2368 21.1842H2.76316C1.75 21.1842 0.921053 20.3553 0.921053 19.3421V2.76316C0.921053 1.75 1.75 0.921052 2.76316 0.921052H32.2368Z" fill="var(--fill-0, white)"/>
<path id="Vector_3" d="M22.0132 7.64474C22.1974 6.72368 22.0132 6.07895 21.4605 5.52632C20.9079 4.88158 19.8947 4.60526 18.6053 4.60526H14.8289C14.5526 4.60526 14.3684 4.78947 14.2763 5.06579L12.8947 14.3684C12.8947 14.5526 12.9868 14.7368 13.1711 14.7368H15.6579L16.0263 11.6053L17.6842 9.57895L22.0132 7.64474V7.64474Z" fill="var(--fill-0, #003087)"/>
<path id="Vector_4" d="M22.0132 7.64474L21.8289 7.82895C21.3684 10.4079 19.8026 11.3289 17.5921 11.3289H16.5789C16.3026 11.3289 16.1184 11.5132 16.0263 11.7895L15.4737 15.3816L15.2895 16.3026C15.2895 16.4868 15.3816 16.6711 15.5658 16.6711H17.5C17.7763 16.6711 17.9605 16.4868 17.9605 16.3026V16.2105L18.3289 14V13.9079C18.3289 13.7237 18.6053 13.5395 18.7895 13.5395H19.0658C21 13.5395 22.4737 12.8026 22.8421 10.5921C23.0263 9.67105 22.9342 8.93421 22.4737 8.38158C22.3816 7.92105 22.1974 7.73684 22.0132 7.64474V7.64474Z" fill="var(--fill-0, #3086C8)"/>
<path id="Vector_5" d="M21.4605 7.46053C21.3684 7.36842 21.2763 7.36842 21.1842 7.36842C21.0921 7.36842 21 7.36842 20.9079 7.27631C20.6316 7.18421 20.2632 7.18421 19.8947 7.18421H17.1316C17.0395 7.18421 16.9474 7.18421 16.9474 7.27631C16.7632 7.36842 16.6711 7.46053 16.6711 7.64474L16.0263 11.6974V11.7895C16.0263 11.5132 16.3026 11.3289 16.5789 11.3289H17.7763C20.0789 11.3289 21.5526 10.4079 22.0132 7.82895V7.64474C21.9211 7.55263 21.7368 7.46053 21.5526 7.46053H21.4605V7.46053Z" fill="var(--fill-0, #012169)"/>
</g>
<defs>
<clipPath id="clip0_44_8862">
<rect width="35" height="22.1053" fill="white"/>
</clipPath>
</defs>
</svg>
