<svg preserveAspectRatio="none" width="100%" height="100%" overflow="visible" style="display: block;" viewBox="0 0 35 23" fill="none" xmlns="http://www.w3.org/2000/svg">
<g id="Group">
<path id="Vector" d="M32.2368 0H2.76316C1.19737 0 0 1.19737 0 2.76316V19.3421C0 20.9079 1.28947 22.1053 2.76316 22.1053H32.2368C33.8026 22.1053 35 20.9079 35 19.3421V2.76316C35 1.19737 33.7105 0 32.2368 0Z" fill="var(--fill-0, #F3F5F6)"/>
<path id="Vector_2" d="M32.2368 0.921052C33.25 0.921052 34.0789 1.75 34.0789 2.76316V19.3421C34.0789 20.3553 33.25 21.1842 32.2368 21.1842H2.76316C1.75 21.1842 0.921053 20.3553 0.921053 19.3421V2.76316C0.921053 1.75 1.75 0.921052 2.76316 0.921052H32.2368Z" fill="var(--fill-0, #006FCF)"/>
<path id="Vector_3" d="M8.26276 9.45737L8.97566 11.1853H7.55539L8.26276 9.45737ZM23.0687 9.52921H20.3267V10.2909H23.0245V11.4321H20.3322V12.2813H23.0742V12.962L24.9872 10.8942L23.0742 8.73895L23.0687 9.52921ZM10.1159 7.37395H13.7955L14.6125 9.15618L15.3696 7.36842H24.9209L25.9138 8.46447L26.9408 7.36842H31.3278L28.0866 10.9163L31.2946 14.4421H26.8422L25.8493 13.3461L24.8132 14.4421H9.23816L8.78316 13.3461H7.74237L7.28645 14.4421H3.68421L6.71079 7.36842H9.87L10.1159 7.37395ZM18.095 8.36684H16.0328L14.6512 11.6237L13.1545 8.36684H11.1079V12.7971L9.21053 8.36684H7.37487L5.18092 13.4437H6.61316L7.06816 12.3476H9.45921L9.91421 13.4437H12.4195V9.81934L14.0322 13.4492H15.1283L16.7309 9.83039V13.4501H18.0738L18.0959 8.36592L18.095 8.36684ZM26.6976 10.9163L29.0288 8.36684H27.3507L25.8761 9.95658L24.4503 8.36684H19.0216V13.4492H24.3729L25.8595 11.8484L27.2853 13.4492H29.0122L26.6986 10.9163H26.6976Z" fill="var(--fill-0, white)"/>
</g>
</svg>
