<svg preserveAspectRatio="none" width="100%" height="100%" overflow="visible" style="display: block;" viewBox="0 0 35 23" fill="none" xmlns="http://www.w3.org/2000/svg">
<g id="2" clip-path="url(#clip0_44_8881)">
<path id="Vector" d="M32.2368 0H2.76316C1.19737 0 0 1.19737 0 2.76316V19.3421C0 20.9079 1.28947 22.1053 2.76316 22.1053H32.2368C33.8026 22.1053 35 20.9079 35 19.3421V2.76316C35 1.19737 33.7105 0 32.2368 0Z" fill="var(--fill-0, #F3F5F6)"/>
<path id="Vector_2" d="M32.2368 0.921052C33.25 0.921052 34.0789 1.75 34.0789 2.76316V19.3421C34.0789 20.3553 33.25 21.1842 32.2368 21.1842H2.76316C1.75 21.1842 0.921053 20.3553 0.921053 19.3421V2.76316C0.921053 1.75 1.75 0.921052 2.76316 0.921052H32.2368Z" fill="var(--fill-0, white)"/>
<path id="Vector_3" d="M13.8158 17.5C17.3766 17.5 20.2632 14.6134 20.2632 11.0526C20.2632 7.49185 17.3766 4.60526 13.8158 4.60526C10.255 4.60526 7.36842 7.49185 7.36842 11.0526C7.36842 14.6134 10.255 17.5 13.8158 17.5Z" fill="var(--fill-0, #EB001B)"/>
<path id="Vector_4" d="M21.1842 17.5C24.745 17.5 27.6316 14.6134 27.6316 11.0526C27.6316 7.49185 24.745 4.60526 21.1842 4.60526C17.6234 4.60526 14.7368 7.49185 14.7368 11.0526C14.7368 14.6134 17.6234 17.5 21.1842 17.5Z" fill="var(--fill-0, #F79E1B)"/>
<path id="Vector_5" d="M20.2632 11.0526C20.2632 8.8421 19.1579 6.90789 17.5 5.80263C15.8421 7 14.7368 8.93421 14.7368 11.0526C14.7368 13.1711 15.8421 15.1974 17.5 16.3026C19.1579 15.1974 20.2632 13.2632 20.2632 11.0526Z" fill="var(--fill-0, #FF5F00)"/>
</g>
<defs>
<clipPath id="clip0_44_8881">
<rect width="35" height="22.1053" fill="white"/>
</clipPath>
</defs>
</svg>
