<svg preserveAspectRatio="none" width="100%" height="100%" overflow="visible" style="display: block;" viewBox="0 0 35 23" fill="none" xmlns="http://www.w3.org/2000/svg">
<path id="Vector" d="M31.437 0H3.09221C2.97414 0 2.85586 0 2.73799 0.000625827C2.63849 0.00146026 2.53919 0.00250331 2.43968 0.00521523C2.22294 0.0110563 2.00432 0.02399 1.79028 0.0623741C1.57563 0.0991497 1.36766 0.1677 1.17322 0.265768C0.782318 0.464589 0.464589 0.782318 0.265768 1.17322C0.167525 1.36774 0.0989668 1.57587 0.0623741 1.7907C0.0235728 2.00494 0.0108477 2.22336 0.00500662 2.43989C0.00246422 2.53931 0.000934337 2.63875 0.000417218 2.7382C0 2.85586 0 2.97393 0 3.09221V19.0128C0 19.1311 0 19.249 0.000417218 19.3673C0.00104305 19.4666 0.0022947 19.5661 0.00500662 19.6656C0.0108477 19.8817 0.0237814 20.1003 0.0623741 20.3144C0.0988917 20.5292 0.16738 20.7373 0.265559 20.9318C0.36427 21.1261 0.493116 21.3035 0.647314 21.4575C0.801248 21.6118 0.978686 21.7406 1.17301 21.8393C1.37056 21.94 1.57291 22.0041 1.79049 22.0431C2.00432 22.0813 2.22294 22.0942 2.43968 22.1C2.53919 22.1023 2.63849 22.1036 2.73799 22.1042C2.85586 22.1051 2.97414 22.1051 3.09221 22.1051H31.437C31.5548 22.1051 31.6731 22.1051 31.791 22.1042C31.8903 22.1038 31.9896 22.1023 32.0895 22.1C32.3058 22.0942 32.5245 22.0813 32.7389 22.0431C32.9536 22.0063 33.1616 21.9376 33.356 21.8393C33.7467 21.6402 34.0643 21.3225 34.2634 20.9318C34.3642 20.7343 34.428 20.5319 34.4666 20.3144C34.5054 20.1003 34.5179 19.8817 34.5238 19.6656C34.5265 19.5661 34.5279 19.4666 34.5284 19.3673C34.5292 19.249 34.5292 19.1311 34.5292 19.0128V3.09242C34.5292 2.97414 34.5292 2.85607 34.5284 2.73799C34.5279 2.63861 34.5264 2.53924 34.5238 2.43989C34.5179 2.22336 34.5054 2.00494 34.4666 1.7907C34.4303 1.57584 34.3618 1.36767 34.2634 1.17322C34.0645 0.782387 33.7468 0.464683 33.356 0.265768C33.1615 0.167801 32.9535 0.0993225 32.7389 0.0625827C32.5245 0.02399 32.3058 0.0112649 32.0895 0.00542384C31.99 0.00289701 31.8905 0.00136714 31.791 0.000834436C31.6731 0 31.5548 0 31.437 0Z" fill="var(--fill-0, #F3F5F6)"/>
</svg>
