<svg preserveAspectRatio="none" width="100%" height="100%" overflow="visible" style="display: block;" viewBox="0 0 35 23" fill="none" xmlns="http://www.w3.org/2000/svg">
<g id="1" clip-path="url(#clip0_44_8888)">
<path id="Vector" d="M32.2368 0H2.76316C1.19737 0 0 1.19737 0 2.76316V19.3421C0 20.9079 1.28947 22.1053 2.76316 22.1053H32.2368C33.8026 22.1053 35 20.9079 35 19.3421V2.76316C35 1.19737 33.7105 0 32.2368 0Z" fill="var(--fill-0, #F3F5F6)"/>
<path id="Vector_2" d="M32.2368 0.921052C33.25 0.921052 34.0789 1.75 34.0789 2.76316V19.3421C34.0789 20.3553 33.25 21.1842 32.2368 21.1842H2.76316C1.75 21.1842 0.921053 20.3553 0.921053 19.3421V2.76316C0.921053 1.75 1.75 0.921052 2.76316 0.921052H32.2368Z" fill="var(--fill-0, white)"/>
<path id="Vector_3" d="M26.0658 9.30263H25.7895C25.4211 10.2237 25.1447 10.6842 24.8684 12.0658H26.6184C26.3421 10.6842 26.3421 10.0395 26.0658 9.30263V9.30263ZM28.7368 14.7368H27.1711C27.0789 14.7368 27.0789 14.7368 26.9868 14.6447L26.8026 13.8158L26.7105 13.6316H24.5C24.4079 13.6316 24.3158 13.6316 24.3158 13.8158L24.0395 14.6447C24.0395 14.7368 23.9474 14.7368 23.9474 14.7368H22.0132L22.1974 14.2763L24.8684 8.01316C24.8684 7.55263 25.1447 7.36842 25.6053 7.36842H26.9868C27.0789 7.36842 27.1711 7.36842 27.1711 7.55263L28.4605 13.5395C28.5526 13.9079 28.6447 14.1842 28.6447 14.5526C28.7368 14.6447 28.7368 14.6447 28.7368 14.7368V14.7368ZM16.3947 14.4605L16.7632 12.8026C16.8553 12.8026 16.9474 12.8947 16.9474 12.8947C17.5921 13.1711 18.2368 13.3553 18.8816 13.2632C19.0658 13.2632 19.3421 13.171 19.5263 13.0789C19.9868 12.8947 19.9868 12.4342 19.6184 12.0658C19.4342 11.8816 19.1579 11.7895 18.8816 11.6053C18.5132 11.4211 18.1447 11.2368 17.8684 10.9605C16.7632 10.0395 17.1316 8.75 17.7763 8.10526C18.3289 7.73684 18.6053 7.36842 19.3421 7.36842C20.4474 7.36842 21.6447 7.36842 22.1974 7.55263H22.2895C22.1974 8.10526 22.1053 8.56579 21.9211 9.11842C21.4605 8.93421 21 8.75 20.5395 8.75C20.2632 8.75 19.9868 8.75 19.7105 8.8421C19.5263 8.8421 19.4342 8.93421 19.3421 9.02631C19.1579 9.21052 19.1579 9.48684 19.3421 9.67105L19.8026 10.0395C20.1711 10.2237 20.5395 10.4079 20.8158 10.5921C21.2763 10.8684 21.7368 11.3289 21.8289 11.8816C22.0132 12.7105 21.7368 13.4474 21 14C20.5395 14.3684 20.3553 14.5526 19.7105 14.5526C18.4211 14.5526 17.4079 14.6447 16.5789 14.3684C16.4868 14.5526 16.4868 14.5526 16.3947 14.4605V14.4605ZM13.1711 14.7368C13.2632 14.0921 13.2632 14.0921 13.3553 13.8158C13.8158 11.7895 14.2763 9.67105 14.6447 7.64474C14.7368 7.46053 14.7368 7.36842 14.9211 7.36842H16.5789C16.3947 8.47368 16.2105 9.30263 15.9342 10.3158C15.6579 11.6974 15.3816 13.0789 15.0132 14.4605C15.0132 14.6447 14.9211 14.6447 14.7368 14.6447L13.1711 14.7368ZM4.60526 7.55263C4.60526 7.46052 4.78947 7.36842 4.88158 7.36842H8.01316C8.47368 7.36842 8.84211 7.64474 8.93421 8.10526L9.76316 12.1579C9.76316 12.25 9.76316 12.25 9.85526 12.3421C9.85526 12.25 9.94737 12.25 9.94737 12.25L11.8816 7.55263C11.7895 7.46052 11.8816 7.36842 11.9737 7.36842H13.9079C13.9079 7.46052 13.9079 7.46052 13.8158 7.55263L10.9605 14.2763C10.8684 14.4605 10.8684 14.5526 10.7763 14.6447C10.6842 14.7368 10.5 14.6447 10.3158 14.6447H8.93421C8.84211 14.6447 8.75 14.6447 8.75 14.4605L7.27632 8.75C7.09211 8.56579 6.81579 8.28947 6.44737 8.19737C5.89474 7.92105 4.88158 7.73684 4.69737 7.73684L4.60526 7.55263Z" fill="var(--fill-0, #142688)"/>
</g>
<defs>
<clipPath id="clip0_44_8888">
<rect width="35" height="22.1053" fill="white"/>
</clipPath>
</defs>
</svg>
